<?xml version="1.0" encoding="UTF-8"?>
<svg width="94px" height="98px" viewBox="0 0 94 98" version="1.1" xmlns="http://www.w3.org/2000/svg" xmlns:xlink="http://www.w3.org/1999/xlink">
    <!-- Generator: Sketch 52.2 (67145) - http://www.bohemiancoding.com/sketch -->
    <title>Shape@3x</title>
    <desc>Created with Sketch.</desc>
    <g id="Search-Icon" stroke="none" stroke-width="1" fill="none" fill-rule="evenodd">
        <g id="noun_Search_1157129" fill="#484848" fill-rule="nonzero">
            <path d="M91.5,87.6 L73.8,69.9 C80.4,62.5 84.5,52.7 84.5,42 C84.5,18.9 65.7,0.1 42.6,0.1 C19.5,0.1 0.7,18.9 0.7,42 C0.7,65.1 19.5,83.9 42.6,83.9 C50.8,83.9 58.4,81.5 64.8,77.5 L83.2,95.9 C84.3,97 85.8,97.6 87.3,97.6 C88.8,97.6 90.3,97 91.4,95.9 C93.8,93.6 93.8,89.9 91.5,87.6 Z M12.4,42 C12.4,25.4 25.9,11.8 42.6,11.8 C59.3,11.8 72.7,25.4 72.7,42 C72.7,58.6 59.2,72.2 42.6,72.2 C26,72.2 12.4,58.7 12.4,42 Z" id="Shape"></path>
        </g>
    </g>
</svg>