<?xml version="1.0" encoding="UTF-8"?>
<svg width="28px" height="26px" viewBox="0 0 28 26" version="1.1" xmlns="http://www.w3.org/2000/svg" xmlns:xlink="http://www.w3.org/1999/xlink">
    <!-- Generator: Sketch 52.2 (67145) - http://www.bohemiancoding.com/sketch -->
    <title>noun_Star_5058 (1)@3x</title>
    <desc>Created with Sketch.</desc>
    <g id="Star-Icon" stroke="none" stroke-width="1" fill="none" fill-rule="evenodd">
        <g id="noun_Star_5058-(1)" fill="#028489">
            <path d="M20.944,25.681 C20.524,25.681 20.108,25.548 19.755,25.288 L14.005,21.041 L8.254,25.288 C7.9,25.548 7.483,25.681 7.065,25.681 C6.653,25.681 6.241,25.552 5.89,25.296 C5.183,24.785 4.89,23.874 5.167,23.046 L7.427,16.263 L1.612,12.105 C0.902,11.596 0.603,10.689 0.872,9.859 C1.14,9.034 1.909,8.477 2.776,8.477 C2.78,8.477 2.786,8.477 2.79,8.477 L9.94,8.534 L12.097,1.718 C12.359,0.887 13.132,0.321 14.003,0.321 C14.874,0.321 15.648,0.887 15.908,1.718 L18.064,8.534 L25.21,8.477 C25.214,8.477 25.225,8.477 25.229,8.477 C26.092,8.477 26.866,9.034 27.128,9.859 C27.399,10.69 27.104,11.596 26.393,12.105 L20.581,16.263 L22.844,23.046 C23.117,23.872 22.824,24.783 22.123,25.296 C21.771,25.552 21.356,25.681 20.944,25.681 Z" id="Path"></path>
        </g>
    </g>
</svg>